<?xml version="1.0" standalone="no"?>
<!DOCTYPE svg PUBLIC "-//W3C//DTD SVG 20010904//EN"
 "http://www.w3.org/TR/2001/REC-SVG-20010904/DTD/svg10.dtd">
<svg version="1.0" xmlns="http://www.w3.org/2000/svg"
 width="400.000000pt" height="400.000000pt" viewBox="0 0 400.000000 400.000000"
 preserveAspectRatio="xMidYMid meet">
<metadata>
Created by potrace 1.11, written by Peter Selinger 2001-2013
</metadata>
<g transform="translate(0.000000,400.000000) scale(0.100000,-0.100000)"
fill="#000000" stroke="none">
<path d="M1900 3309 c-338 -25 -654 -188 -876 -452 -40 -48 -90 -115 -110
-150 l-36 -62 -116 -1 c-102 -1 -127 -5 -192 -29 -320 -118 -500 -444 -420
-761 58 -231 219 -402 445 -475 57 -18 94 -22 202 -23 l132 -1 30 -45 c105
-158 313 -331 508 -421 495 -230 1094 -115 1467 282 43 45 95 108 116 139 l39
58 48 -10 c70 -14 204 -1 287 26 112 39 185 84 267 165 191 191 241 476 126
726 -106 232 -336 374 -602 375 l-90 0 -25 46 c-35 67 -113 167 -189 243 -266
267 -627 399 -1011 370z m-317 -565 c126 -28 215 -79 365 -212 l60 -52 67 62
c185 173 393 248 565 204 181 -47 301 -191 352 -421 18 -81 22 -133 22 -275 1
-194 -15 -281 -75 -425 -119 -286 -462 -528 -850 -600 -83 -15 -91 -15 -185 4
-393 80 -710 309 -834 600 -73 171 -98 400 -65 605 32 204 77 310 172 404 111
108 242 143 406 106z m-868 -254 c16 -6 32 -25 42 -47 14 -35 14 -45 -3 -133
-21 -105 -26 -359 -10 -486 11 -91 2 -136 -35 -178 -37 -43 -102 -59 -182 -46
-127 20 -208 96 -258 242 -28 80 -31 227 -6 306 50 160 179 300 317 343 36 11
105 11 135 -1z m2786 -31 c137 -73 238 -223 261 -387 11 -71 10 -95 -4 -163
-22 -105 -57 -178 -110 -229 -69 -68 -165 -97 -260 -80 -105 20 -140 94 -119
251 17 128 14 302 -9 433 -32 183 -12 220 116 212 46 -3 78 -12 125 -37z"/>
<path d="M1445 2396 c-85 -38 -127 -188 -89 -315 22 -76 67 -122 127 -128 46
-6 49 -4 91 39 43 45 66 103 66 166 l0 29 -41 -11 c-51 -13 -87 4 -112 56 -16
33 -17 40 -3 72 9 22 28 42 52 54 l38 19 -32 17 c-37 19 -57 20 -97 2z"/>
<path d="M2470 2394 l-35 -16 30 -13 c48 -21 68 -49 68 -97 0 -34 -6 -47 -32
-70 -33 -30 -77 -36 -112 -18 -17 10 -19 7 -19 -32 0 -55 38 -136 79 -171 63
-52 143 -24 190 68 22 42 26 63 26 135 0 75 -3 91 -29 137 -45 82 -100 107
-166 77z"/>
<path d="M1854 1805 c-29 -8 -67 -20 -85 -28 l-34 -13 65 -13 c82 -16 162 -51
186 -83 l18 -25 23 27 c28 34 97 64 183 81 l64 12 -40 17 c-96 41 -277 53
-380 25z"/>
<path d="M1360 1610 c28 -96 138 -174 316 -221 102 -27 409 -38 547 -19 223
30 382 116 424 230 l12 32 -48 -45 c-63 -59 -133 -94 -248 -123 -359 -91 -832
-27 -972 132 -40 45 -40 45 -31 14z"/>
</g>
</svg>
